<svg width="108" height="74" viewBox="0 0 108 74" fill="none" xmlns="http://www.w3.org/2000/svg">
<g filter="url(#filter0_d_57_150)">
<rect x="4" width="100" height="60" rx="5" fill="#F77737"/>
<g clip-path="url(#clip0_57_150)">
<path d="M53.1309 23.2617C49.4043 23.2617 46.3984 26.2676 46.3984 29.9941C46.3984 33.7207 49.4043 36.7266 53.1309 36.7266C56.8574 36.7266 59.8633 33.7207 59.8633 29.9941C59.8633 26.2676 56.8574 23.2617 53.1309 23.2617ZM53.1309 34.3711C50.7227 34.3711 48.7539 32.4082 48.7539 29.9941C48.7539 27.5801 50.7168 25.6172 53.1309 25.6172C55.5449 25.6172 57.5078 27.5801 57.5078 29.9941C57.5078 32.4082 55.5391 34.3711 53.1309 34.3711ZM61.709 22.9863C61.709 23.8594 61.0059 24.5566 60.1387 24.5566C59.2656 24.5566 58.5684 23.8535 58.5684 22.9863C58.5684 22.1191 59.2715 21.416 60.1387 21.416C61.0059 21.416 61.709 22.1191 61.709 22.9863ZM66.168 24.5801C66.0684 22.4766 65.5879 20.6133 64.0469 19.0781C62.5117 17.543 60.6484 17.0625 58.5449 16.957C56.377 16.834 49.8789 16.834 47.7109 16.957C45.6133 17.0566 43.75 17.5371 42.209 19.0723C40.668 20.6074 40.1934 22.4707 40.0879 24.5742C39.9648 26.7422 39.9648 33.2402 40.0879 35.4082C40.1875 37.5117 40.668 39.375 42.209 40.9102C43.75 42.4453 45.6074 42.9258 47.7109 43.0312C49.8789 43.1543 56.377 43.1543 58.5449 43.0312C60.6484 42.9316 62.5117 42.4512 64.0469 40.9102C65.582 39.375 66.0625 37.5117 66.168 35.4082C66.291 33.2402 66.291 26.748 66.168 24.5801ZM63.3672 37.7344C62.9102 38.8828 62.0254 39.7676 60.8711 40.2305C59.1426 40.916 55.041 40.7578 53.1309 40.7578C51.2207 40.7578 47.1133 40.9102 45.3906 40.2305C44.2422 39.7734 43.3574 38.8887 42.8945 37.7344C42.209 36.0059 42.3672 31.9043 42.3672 29.9941C42.3672 28.084 42.2148 23.9766 42.8945 22.2539C43.3516 21.1055 44.2363 20.2207 45.3906 19.7578C47.1191 19.0723 51.2207 19.2305 53.1309 19.2305C55.041 19.2305 59.1484 19.0781 60.8711 19.7578C62.0195 20.2148 62.9043 21.0996 63.3672 22.2539C64.0527 23.9824 63.8945 28.084 63.8945 29.9941C63.8945 31.9043 64.0527 36.0117 63.3672 37.7344Z" fill="white"/>
</g>
</g>
<defs>
<filter id="filter0_d_57_150" x="0" y="0" width="108" height="74" filterUnits="userSpaceOnUse" color-interpolation-filters="sRGB">
<feFlood flood-opacity="0" result="BackgroundImageFix"/>
<feColorMatrix in="SourceAlpha" type="matrix" values="0 0 0 0 0 0 0 0 0 0 0 0 0 0 0 0 0 0 127 0" result="hardAlpha"/>
<feOffset dy="10"/>
<feGaussianBlur stdDeviation="2"/>
<feComposite in2="hardAlpha" operator="out"/>
<feColorMatrix type="matrix" values="0 0 0 0 0 0 0 0 0 0 0 0 0 0 0 0 0 0 0.25 0"/>
<feBlend mode="normal" in2="BackgroundImageFix" result="effect1_dropShadow_57_150"/>
<feBlend mode="normal" in="SourceGraphic" in2="effect1_dropShadow_57_150" result="shape"/>
</filter>
<clipPath id="clip0_57_150">
<rect width="26.25" height="30" fill="white" transform="translate(40 15)"/>
</clipPath>
</defs>
</svg>
